<?xml version="1.0" encoding="utf-8"?>
<!-- Generator: Adobe Illustrator 21.0.0, SVG Export Plug-In . SVG Version: 6.00 Build 0)  -->
<svg version="1.1" xmlns="http://www.w3.org/2000/svg" xmlns:xlink="http://www.w3.org/1999/xlink" x="0px" y="0px"
	 viewBox="0 0 4704 975.8" style="enable-background:new 0 0 4704 975.8;" xml:space="preserve">
<style type="text/css">
	.st0{fill:#133453;}
	.st1{fill:#DB4514;}
	.st2{fill:url(#SVGID_1_);}
	.st3{fill:url(#SVGID_2_);}
	.st4{fill:url(#SVGID_3_);}
</style>
<g id="Layer_4">
	<path class="st0" d="M1329,962H12c-6.6,0-12-5.4-12-12V12C0,5.4,5.4,0,12,0h1317c6.6,0,12,5.4,12,12v938
		C1341,956.6,1335.6,962,1329,962z"/>
</g>
<g id="Layer_1">
	<g>
		<path class="st0" d="M1938.3,776.6V352L1763,673.6h-51.5L1535.3,352v424.6h-93.1v-590h99.7l195.3,360.7l195.3-360.7h99.7v590
			H1938.3z"/>
		<path class="st0" d="M2231.7,785c-21.1,0-40.6-3.5-58.6-10.4c-18-6.9-33.5-16.5-46.5-28.7c-13-12.2-23.3-26.6-30.7-43.2
			c-7.5-16.6-11.2-34.6-11.2-54c0-20.5,4.4-39.1,13.3-55.7c8.9-16.6,21.5-31,37.8-43.2c16.3-12.2,35.7-21.6,58.2-28.3
			c22.4-6.6,47.2-10,74.4-10c20.5,0,40.7,1.8,60.7,5.4c19.9,3.6,37.9,8.5,54,14.5v-29.9c0-32.1-9.1-57.2-27.4-75.2
			c-18.3-18-44.6-27-78.9-27c-23.3,0-46.1,4.3-68.6,12.9c-22.4,8.6-45.6,20.9-69.4,37l-28.3-58.2c56-37.7,114.1-56.5,174.5-56.5
			c59.8,0,106.4,15.2,139.6,45.7c33.2,30.5,49.9,74.2,49.9,131.3v157.1c0,19.4,8,29.4,24.1,29.9v78.1c-8.9,1.7-16.5,2.8-22.9,3.3
			c-6.4,0.5-12.6,0.8-18.7,0.8c-17.7,0-31.4-4.4-41.1-13.3c-9.7-8.9-15.7-20.2-17.9-34.1l-2.5-27.4c-19.4,25.5-43.4,45-71.9,58.6
			C2295,778.2,2264.4,785,2231.7,785z M2256.6,717.6c22.2,0,43.1-4,62.7-12c19.7-8,35-19.2,46.1-33.7c11.6-10,17.5-20.5,17.5-31.6
			V583c-15.5-6.1-32-10.8-49.4-14.1c-17.5-3.3-34.5-5-51.1-5c-32.7,0-59.4,7.1-80.2,21.2c-20.8,14.1-31.2,32.8-31.2,56.1
			c0,21.6,8,39.8,24.1,54.4C2211.2,710.3,2231.7,717.6,2256.6,717.6z"/>
		<path class="st0" d="M2723.6,780.8c-29.4,0-56.2-5.9-80.6-17.9c-24.4-11.9-45.3-28.1-62.7-48.6c-17.5-20.5-31-44-40.7-70.6
			c-9.7-26.6-14.5-54.6-14.5-83.9c0-31,5-60.2,15-87.7c10-27.4,23.8-51.2,41.6-71.5c17.7-20.2,38.9-36.3,63.6-48.2
			c24.6-11.9,51.9-17.9,81.9-17.9c34.9,0,65.5,8.3,91.8,24.9c26.3,16.6,48.1,38.2,65.2,64.8V342h80.6v422.2
			c0,31.6-5.8,59.5-17.5,83.9c-11.6,24.4-27.8,45-48.6,61.9c-20.8,16.9-45.3,29.8-73.5,38.6c-28.3,8.9-58.7,13.3-91.4,13.3
			c-48.2,0-88.2-8.2-120.1-24.5c-31.9-16.3-58.6-39.2-80.2-68.6l51.5-48.2c16.6,23.3,38.1,41,64.4,53.2
			c26.3,12.2,54.4,18.3,84.3,18.3c18.8,0,36.7-2.5,53.6-7.5c16.9-5,31.7-12.8,44.5-23.3c12.7-10.5,22.9-23.8,30.3-39.9
			c7.5-16.1,11.2-35.2,11.2-57.3v-66.5c-15.5,26.6-36.9,47.1-64,61.5C2782.1,773.6,2753.5,780.8,2723.6,780.8z M2753.5,706.8
			c13.8,0,27.1-2.3,39.9-7.1c12.7-4.7,24.5-11.1,35.3-19.1c10.8-8,20.1-17.2,27.8-27.4c7.8-10.2,13.3-21.2,16.6-32.8V506.6
			c-5.5-13.8-12.8-26.4-21.6-37.8c-8.9-11.3-19-21.2-30.3-29.5c-11.4-8.3-23.4-14.8-36.1-19.5c-12.8-4.7-25.5-7.1-38.2-7.1
			c-19.9,0-37.8,4.3-53.6,12.9c-15.8,8.6-29.2,19.9-40.3,34.1c-11.1,14.1-19.7,30.1-25.8,47.8c-6.1,17.7-9.1,36-9.1,54.8
			c0,19.9,3.5,38.6,10.4,56.1c6.9,17.5,16.5,32.7,28.7,45.7c12.2,13,26.4,23.4,42.8,31.2C2716.3,703,2734.1,706.8,2753.5,706.8z"/>
		<path class="st0" d="M3430.8,776.6h-91.4V533.2c0-41-6.5-70.8-19.5-89.3c-13-18.6-32.3-27.8-57.8-27.8c-13.3,0-26.6,2.5-39.9,7.5
			c-13.3,5-25.8,12-37.4,21.2c-11.6,9.1-22,19.9-31.2,32.4c-9.1,12.5-16.2,26.2-21.2,41.1v258.4h-91.4V342h83.1v87.3
			c16.6-29.4,40.7-52.5,72.3-69.4c31.6-16.9,66.5-25.3,104.7-25.3c26,0,47.4,4.7,64,14.1c16.6,9.4,29.8,22.3,39.5,38.6
			c9.7,16.3,16.5,35.2,20.4,56.5c3.9,21.3,5.8,43.9,5.8,67.7V776.6z"/>
		<path class="st0" d="M3637.7,785c-45.4,0-79.8-14.8-103-44.5c-23.3-29.6-34.9-73.8-34.9-132.5V342h91.4v247.6
			c0,78.1,27.7,117.2,83.1,117.2c26,0,50.7-8,74-24.1c23.3-16.1,41.3-39.3,54-69.8V342h91.4v326.6c0,10.5,1.8,18,5.4,22.4
			c3.6,4.4,10.1,6.9,19.5,7.5v78.1c-9.4,1.7-17.2,2.8-23.3,3.3c-6.1,0.5-11.9,0.8-17.5,0.8c-16.6,0-30.7-4.6-42.4-13.7
			c-11.6-9.1-17.7-20.9-18.3-35.3l-1.7-43.2c-19.4,31.6-44.6,55.5-75.6,71.9C3708.9,776.8,3674.8,785,3637.7,785z"/>
		<path class="st0" d="M4641.6,776.6h-91.4V533.2c0-40.4-6.6-70.1-19.9-88.9c-13.3-18.8-32.7-28.3-58.2-28.3
			c-26,0-49.7,9.6-71.1,28.7c-21.3,19.1-36.7,43.9-46.1,74.4v257.6h-91.4V533.2c0-41-6.6-70.8-19.9-89.3
			c-13.3-18.6-32.4-27.8-57.3-27.8c-26,0-49.9,9.4-71.5,28.3c-21.6,18.8-37.1,43.5-46.5,74v258.4h-91.4V342h83.1v87.3
			c17.2-30.5,39.7-53.9,67.7-70.2c28-16.3,60-24.5,96-24.5c36,0,64.4,9.4,85.2,28.3c20.8,18.8,33.7,42.4,38.6,70.6
			c18.3-32.1,41.3-56.6,69-73.5c27.7-16.9,59.3-25.3,94.7-25.3c25.5,0,46.7,4.9,63.6,14.5c16.9,9.7,30.3,22.6,40.3,38.6
			c10,16.1,16.9,34.8,20.8,56.1c3.9,21.3,5.8,43.9,5.8,67.7V776.6z"/>
	</g>
	<g>
		<path class="st1" d="M4071.5,915v18.5h-94.1V801h92.3v18.5h-70.7v37.7h61.2v17.4h-61.2V915H4071.5z"/>
		<path class="st1" d="M4119,935.3c-8.1,0-16.2-1.3-24.2-3.8c-8-2.5-15-6.2-20.8-10.9l8.5-13.1c6.1,4.2,12,7.4,18,9.6
			c5.9,2.2,12,3.3,18.2,3.3c6.3,0,11.3-1.2,15-3.5c3.7-2.4,5.5-5.7,5.5-10.1c0-4.1-2.1-7.1-6.2-9c-4.1-1.9-10.6-3.9-19.3-6.2
			c-6.3-1.6-11.7-3.2-16.2-4.7c-4.5-1.5-8.2-3.2-11-5.2c-2.8-2-4.9-4.3-6.2-6.9c-1.3-2.6-1.9-5.8-1.9-9.5c0-5,1-9.4,3-13.2
			c2-3.9,4.8-7.1,8.3-9.8c3.5-2.7,7.7-4.7,12.5-6.1c4.8-1.4,9.9-2.1,15.5-2.1c7.6,0,14.7,1.1,21.2,3.4c6.6,2.2,12.4,5.5,17.6,9.7
			l-9.1,12.3c-9.4-7.2-19.4-10.8-29.9-10.8c-5.4,0-9.9,1.1-13.6,3.3c-3.7,2.2-5.5,5.6-5.5,10.4c0,2,0.4,3.7,1.2,5
			c0.8,1.4,2,2.6,3.8,3.5c1.7,1,4,1.9,6.8,2.7c2.8,0.8,6.2,1.7,10.3,2.7c6.8,1.6,12.7,3.2,17.7,4.9c5,1.6,9,3.5,12.3,5.7
			c3.2,2.2,5.6,4.7,7.1,7.7c1.5,2.9,2.3,6.4,2.3,10.5c0,9.3-3.6,16.7-10.9,22.1C4141.4,932.6,4131.5,935.3,4119,935.3z"/>
		<path class="st1" d="M4226.6,928.4c-2.7,1.2-6.4,2.6-11.2,4.2c-4.8,1.6-9.8,2.3-15.3,2.3c-3.3,0-6.5-0.4-9.5-1.3
			c-3-0.9-5.6-2.2-7.8-3.9c-2.3-1.7-4-4-5.3-6.8c-1.3-2.8-1.9-6.2-1.9-10.2v-61h-13.3v-15.9h13.3v-32.1h21.2v32.1h22v15.9h-22v54.5
			c0.3,3.5,1.4,6,3.4,7.6c2,1.6,4.5,2.3,7.4,2.3c3,0,5.8-0.5,8.5-1.5c2.7-1,4.7-1.8,6-2.4L4226.6,928.4z"/>
		<path class="st1" d="M4347.1,915v18.5h-73.8V915h27.4v-65.1c-1.2,1.5-3,3-5.4,4.7c-2.4,1.6-5.2,3.1-8.1,4.5
			c-3,1.4-6.1,2.5-9.3,3.5c-3.2,0.9-6.1,1.4-8.5,1.4v-19.2c2.6,0,5.6-0.7,9-2.2c3.4-1.5,6.7-3.2,9.8-5.2c3.2-2,5.9-4,8.3-6
			c2.4-2,3.8-3.4,4.2-4.3h21.8V915H4347.1z"/>
		<path class="st1" d="M4350.6,872.8c0-6.3,1.3-12.3,3.9-17.9c2.6-5.6,6.1-10.5,10.5-14.6c4.4-4.2,9.7-7.4,15.7-9.8
			c6.1-2.4,12.6-3.5,19.5-3.5c7.5,0,14.3,1.3,20.5,4c6.2,2.7,11.5,6.5,15.8,11.6c4.4,5,7.8,11.2,10.1,18.5
			c2.4,7.3,3.6,15.5,3.6,24.7c0,12.7-1.3,23.8-3.8,33.3c-2.5,9.5-6,17.5-10.5,23.9c-4.5,6.4-10,11.2-16.5,14.5
			c-6.5,3.2-13.7,4.9-21.5,4.9c-8.8,0-16.8-1.9-24-5.8c-7.3-3.9-13.2-9.3-17.7-16.4l12.6-12.7c3,5.2,7,9.4,12.3,12.4
			c5.2,3,11,4.6,17.3,4.6c9.7,0,17.3-4,23.1-11.8c5.7-7.9,8.7-19,9-33.3c-2.7,5.6-6.9,10-12.6,13.2c-5.7,3.2-12.3,4.9-19.6,4.9
			c-6.7,0-12.9-1.1-18.7-3.5c-5.8-2.3-10.8-5.4-15.1-9.4c-4.2-4-7.6-8.7-10-14.1C4351.8,884.8,4350.6,879,4350.6,872.8z M4400,844.4
			c-4,0-7.8,0.7-11.3,2.2c-3.5,1.5-6.6,3.5-9.3,6.2c-2.6,2.6-4.7,5.6-6.3,9c-1.5,3.4-2.3,7.1-2.3,10.9c0,3.9,0.8,7.5,2.3,10.8
			c1.5,3.4,3.6,6.3,6.3,8.9c2.6,2.6,5.7,4.6,9.3,6.1c3.5,1.5,7.3,2.2,11.3,2.2c4,0,7.8-0.7,11.3-2.2c3.5-1.5,6.6-3.5,9.3-6.1
			c2.6-2.5,4.7-5.5,6.3-8.9c1.5-3.4,2.3-7,2.3-10.8c0-3.9-0.8-7.5-2.3-10.9c-1.5-3.4-3.6-6.4-6.3-9c-2.6-2.6-5.7-4.7-9.3-6.2
			C4407.8,845.2,4404,844.4,4400,844.4z"/>
		<path class="st1" d="M4517.4,843.5H4451v-18.8h100l-68.6,132.5h-24.1L4517.4,843.5z"/>
		<path class="st1" d="M4615,889.4c4,0.7,7.7,2.1,11,4c3.3,1.9,6.2,4.3,8.5,7.2c2.3,2.9,4.1,6.2,5.4,9.9c1.3,3.7,1.9,7.8,1.9,12.1
			c0,5.8-1.1,11.1-3.4,15.8c-2.3,4.7-5.5,8.7-9.7,12c-4.2,3.4-9.2,5.9-15.2,7.7c-5.9,1.8-12.6,2.7-19.9,2.7
			c-9.8,0-18.4-1.7-25.9-4.9c-7.5-3.3-13.5-8.1-18-14.3l12.9-14.2c3.1,4.6,7.1,8.2,12,10.8c4.9,2.6,11.1,3.9,18.5,3.9
			c8.5,0,15-1.7,19.6-5.2c4.6-3.5,6.9-8.7,6.9-15.7c0-7.2-2.6-12.9-7.7-17c-5.2-4.1-12.7-6.2-22.8-6.2h-5.2v-16h5.8
			c8.6,0,15.3-2,19.9-5.9c4.6-3.9,7-8.9,7-14.8c0-6-2.1-10.4-6.2-13.2c-4.1-2.8-9.5-4.2-16-4.2s-12.4,1.4-17.4,4.1
			c-5,2.7-9,6.7-12,11.8l-13.3-14c1.8-3,4.2-5.7,7.3-8.1c3.1-2.4,6.6-4.5,10.5-6.3c3.9-1.8,8.2-3.2,12.7-4.1
			c4.6-0.9,9.3-1.4,14.2-1.4c6.3,0,12.1,0.8,17.3,2.4c5.2,1.6,9.7,3.9,13.5,6.7c3.8,2.9,6.7,6.3,8.8,10.4c2.1,4.1,3.1,8.6,3.1,13.6
			c0,3.7-0.6,7.3-1.7,10.6c-1.2,3.4-2.8,6.4-4.9,9.1c-2.1,2.7-4.7,5-7.6,6.8C4622,887.6,4618.7,888.8,4615,889.4z"/>
	</g>
</g>
<g id="Layer_2">
	<g>
		<linearGradient id="SVGID_1_" gradientUnits="userSpaceOnUse" x1="339.856" y1="776.3828" x2="339.856" y2="186.3604">
			<stop  offset="0" style="stop-color:#9A9999"/>
			<stop  offset="0.495" style="stop-color:#EFEEEE"/>
			<stop  offset="1" style="stop-color:#9A9999"/>
		</linearGradient>
		<path class="st2" d="M571.7,624.3c0,23.8-4.9,45.2-14.5,64c-9.7,18.8-22.7,34.8-39.1,47.8c-16.3,13-35.6,23-57.8,29.9
			c-22.2,6.9-45.7,10.4-70.6,10.4H108v-590h304.2c20.5,0,39.1,4.4,55.7,13.3c16.6,8.9,30.7,20.4,42.4,34.5
			c11.6,14.1,20.6,30.2,27,48.2c6.4,18,9.6,36.1,9.6,54.4c0,28.8-7.3,55.8-22,81c-14.7,25.2-35.6,43.9-62.7,56.1
			c33.8,10,60.5,28.1,80.2,54.4C561.9,554.6,571.7,586.6,571.7,624.3z M201.1,267v173.7h171.2c11.6,0,22.3-2.2,32-6.6
			c9.7-4.4,18.3-10.4,25.8-17.9c7.5-7.5,13.3-16.5,17.5-27c4.2-10.5,6.2-22.2,6.2-34.9c0-25.5-7.2-46.4-21.6-62.7
			c-14.4-16.3-32.7-24.5-54.8-24.5H201.1z M476.1,606.9c0-12.2-2.1-23.8-6.2-34.9c-4.2-11.1-9.7-20.8-16.6-29.1
			c-6.9-8.3-15.4-15-25.3-19.9c-10-5-20.8-7.5-32.4-7.5H201.1v180.3h188.6c12.2,0,23.5-2.4,34.1-7.1c10.5-4.7,19.7-11.1,27.4-19.1
			c7.8-8,13.8-17.5,18.3-28.3C473.9,630.5,476.1,619,476.1,606.9z"/>
		<linearGradient id="SVGID_2_" gradientUnits="userSpaceOnUse" x1="682.2249" y1="776.3828" x2="682.2249" y2="186.3604">
			<stop  offset="0" style="stop-color:#9A9999"/>
			<stop  offset="0.495" style="stop-color:#EFEEEE"/>
			<stop  offset="1" style="stop-color:#9A9999"/>
		</linearGradient>
		<path class="st3" d="M635.7,776.4v-590h93.1v590H635.7z"/>
		<linearGradient id="SVGID_3_" gradientUnits="userSpaceOnUse" x1="1030.8269" y1="776.3828" x2="1030.8269" y2="186.3604">
			<stop  offset="0" style="stop-color:#9A9999"/>
			<stop  offset="0.495" style="stop-color:#EFEEEE"/>
			<stop  offset="1" style="stop-color:#9A9999"/>
		</linearGradient>
		<path class="st4" d="M1233.2,694.1v82.3H828.5v-590h397.2v82.3H921.5v167.9H1185v77.3H921.5v180.3H1233.2z"/>
	</g>
</g>
</svg>
